<?xml version="1.0" encoding="UTF-8"?>
<svg xmlns="http://www.w3.org/2000/svg" viewBox="0 0 512 512" width="512" height="512">
  <defs>
    <radialGradient id="bgGradient" cx="50%" cy="50%" r="50%" fx="50%" fy="50%">
      <stop offset="0%" stop-color="#24243e" />
      <stop offset="50%" stop-color="#302b63" />
      <stop offset="100%" stop-color="#0f0c29" />
    </radialGradient>
    
    <linearGradient id="goldGradient" x1="0%" y1="0%" x2="100%" y2="100%">
      <stop offset="0%" stop-color="#ffd700" />
      <stop offset="50%" stop-color="#f5a742" />
      <stop offset="100%" stop-color="#ffd700" />
    </linearGradient>
    
    <radialGradient id="spaceGradient" cx="50%" cy="50%" r="70%" fx="50%" fy="50%">
      <stop offset="0%" stop-color="#24243e" />
      <stop offset="50%" stop-color="#302b63" />
      <stop offset="100%" stop-color="#0f0c29" />
    </radialGradient>
    
    <radialGradient id="cloudGradient1" cx="30%" cy="30%" r="70%" fx="30%" fy="30%">
      <stop offset="0%" stop-color="#ff71ce" stop-opacity="0.7" />
      <stop offset="100%" stop-color="#01cdfe" stop-opacity="0.7" />
    </radialGradient>
    
    <radialGradient id="cloudGradient2" cx="70%" cy="70%" r="70%" fx="70%" fy="70%">
      <stop offset="0%" stop-color="#01cdfe" stop-opacity="0.7" />
      <stop offset="100%" stop-color="#ff71ce" stop-opacity="0.7" />
    </radialGradient>
    
    <filter id="glow" x="-20%" y="-20%" width="140%" height="140%">
      <feGaussianBlur stdDeviation="5" result="blur" />
      <feComposite in="SourceGraphic" in2="blur" operator="over" />
    </filter>
    
    <filter id="softGlow" x="-50%" y="-50%" width="200%" height="200%">
      <feGaussianBlur stdDeviation="10" result="blur" />
      <feComposite in="SourceGraphic" in2="blur" operator="over" />
    </filter>
  </defs>
  
  <!-- Космический фон -->
  <circle cx="256" cy="256" r="250" fill="url(#spaceGradient)" />
  
  <!-- Облака в космосе -->
  <path d="M100,200 Q150,150 200,200 T300,200 T400,200" fill="url(#cloudGradient1)" opacity="0.5" filter="url(#softGlow)" />
  <path d="M100,300 Q150,350 200,300 T300,300 T400,300" fill="url(#cloudGradient2)" opacity="0.5" filter="url(#softGlow)" />
  
  <!-- Звезды в космосе -->
  <g fill="#ffffff" filter="url(#glow)">
    <circle cx="120" cy="120" r="2" />
    <circle cx="180" cy="150" r="1.5" />
    <circle cx="220" cy="100" r="2" />
    <circle cx="300" cy="120" r="1.5" />
    <circle cx="350" cy="150" r="2" />
    <circle cx="400" cy="100" r="1.5" />
    <circle cx="120" cy="350" r="2" />
    <circle cx="180" cy="400" r="1.5" />
    <circle cx="220" cy="380" r="2" />
    <circle cx="300" cy="420" r="1.5" />
    <circle cx="350" cy="380" r="2" />
    <circle cx="400" cy="350" r="1.5" />
    <circle cx="150" cy="250" r="2" />
    <circle cx="350" cy="250" r="2" />
    <circle cx="250" cy="150" r="2" />
    <circle cx="250" cy="350" r="2" />
  </g>
  
  <!-- Созвездия -->
  <g stroke="#ffffff" stroke-width="0.5" opacity="0.7">
    <path d="M120,120 L180,150 L220,100" />
    <path d="M300,120 L350,150 L400,100" />
    <path d="M120,350 L180,400 L220,380" />
    <path d="M300,420 L350,380 L400,350" />
  </g>
  
  <!-- Внешнее кольцо -->
  <circle cx="256" cy="256" r="240" stroke="url(#goldGradient)" stroke-width="12" fill="none" filter="url(#glow)" />
  
  <!-- Буква S -->
  <path d="M256,96 C223,96 174,116 174,160 C174,204 223,224 256,224 C289,224 338,244 338,288 C338,332 289,352 256,352 C223,352 174,332 174,288 M256,96 C289,96 338,116 338,160" 
        fill="none" stroke="url(#goldGradient)" stroke-width="30" stroke-linecap="round" filter="url(#glow)" />
  
  <!-- Яркие точки на букве S -->
  <g fill="#ffffff" filter="url(#glow)">
    <circle cx="174" cy="160" r="5" />
    <circle cx="174" cy="288" r="5" />
    <circle cx="338" cy="160" r="5" />
    <circle cx="338" cy="288" r="5" />
    <circle cx="256" cy="96" r="5" />
    <circle cx="256" cy="224" r="5" />
    <circle cx="256" cy="352" r="5" />
  </g>
  
  <!-- Сияние вокруг монеты -->
  <circle cx="256" cy="256" r="250" stroke="url(#goldGradient)" stroke-width="2" fill="none" opacity="0.5" filter="url(#softGlow)" />
</svg> 